<?xml version="1.0" standalone="no"?>
<!DOCTYPE svg PUBLIC "-//W3C//DTD SVG 20010904//EN"
 "http://www.w3.org/TR/2001/REC-SVG-20010904/DTD/svg10.dtd">
<svg version="1.0" xmlns="http://www.w3.org/2000/svg"
 width="250.000000pt" height="250.000000pt" viewBox="0 0 250.000000 250.000000"
 preserveAspectRatio="xMidYMid meet">
<metadata>
Created by potrace 1.14, written by Peter Selinger 2001-2017
</metadata>
<g transform="translate(0.000000,250.000000) scale(0.100000,-0.100000)"
fill="#000000" stroke="none">
<path d="M1211 1455 l2 -255 27 0 28 0 -3 243 c-2 133 -4 248 -4 255 -1 6 -12
12 -27 12 l-25 0 2 -255z"/>
<path d="M1145 1458 c1 -203 2 -213 21 -213 18 0 19 10 22 213 l2 212 -23 0
-24 0 2 -212z"/>
<path d="M1082 1631 c-9 -5 -12 -50 -10 -179 3 -164 4 -172 23 -172 19 0 20 6
17 172 -2 95 -6 176 -10 180 -4 4 -13 4 -20 -1z"/>
<path d="M1004 1420 c1 -82 4 -110 14 -110 10 0 12 26 11 110 -1 80 -4 110
-13 110 -10 0 -13 -29 -12 -110z"/>
<path d="M50 1099 c0 -9 6 -19 13 -22 10 -4 13 -27 12 -87 -1 -105 5 -114 81
-111 67 3 86 14 84 50 -1 14 -2 54 -1 89 1 59 2 62 26 62 14 0 25 -6 26 -12 1
-23 1 -102 0 -130 -1 -18 -7 -28 -16 -28 -8 0 -15 -8 -15 -17 0 -15 10 -18 60
-18 50 0 60 3 60 18 0 9 -7 17 -15 17 -10 0 -15 10 -15 34 0 22 5 34 13 32 24
-3 38 -18 36 -39 -5 -65 -10 -62 123 -61 105 1 123 4 135 20 15 20 11 86 -6
92 -7 2 -6 11 3 25 18 29 17 73 -1 89 -22 18 -171 18 -178 0 -3 -8 3 -16 15
-19 18 -5 20 -14 20 -89 0 -77 -2 -84 -20 -84 -14 0 -18 -5 -13 -17 5 -15 3
-14 -10 2 -9 11 -17 31 -17 46 0 14 -5 30 -11 36 -8 8 -8 13 0 17 15 10 14
103 -1 112 -7 5 -72 8 -145 9 -118 1 -133 -1 -133 -16 0 -9 6 -19 13 -22 10
-4 13 -26 11 -78 -1 -41 -2 -77 -3 -81 0 -5 -12 -8 -26 -8 -25 0 -25 1 -25 85
0 50 4 85 10 85 6 0 10 8 10 18 0 14 -9 18 -50 18 -41 0 -50 -3 -50 -17z m345
-54 c0 -23 -5 -31 -23 -33 -19 -3 -22 1 -22 33 0 32 3 36 23 33 17 -2 22 -9
22 -33z m213 3 c-2 -25 -8 -33 -23 -33 -16 0 -20 7 -21 33 0 27 3 32 23 32 21
0 24 -4 21 -32z m1 -90 c11 -31 3 -48 -23 -48 -19 0 -23 5 -23 35 0 27 4 35
19 35 10 0 22 -10 27 -22z"/>
<path d="M740 1098 c0 -10 7 -18 16 -18 11 0 14 -5 10 -17 -39 -106 -61 -153
-73 -153 -18 0 -17 -30 2 -31 54 -5 75 0 75 16 0 8 -5 15 -11 15 -6 0 -9 5 -7
12 7 19 64 22 71 3 4 -8 2 -15 -3 -15 -6 0 -10 -8 -10 -18 0 -13 7 -17 28 -16
15 1 37 3 50 3 23 1 32 31 9 31 -12 0 -34 47 -73 153 -5 15 1 17 60 17 l66 0
0 -85 c0 -69 -3 -85 -15 -85 -8 0 -15 -7 -15 -15 0 -16 4 -17 45 -17 55 0 65
3 65 17 0 8 -6 15 -13 15 -9 0 -13 13 -13 39 1 22 3 41 6 44 3 3 17 -15 32
-39 20 -33 24 -44 13 -44 -18 0 -20 -26 -2 -32 6 -2 34 -1 62 2 l50 5 -22 20
c-18 17 -21 31 -21 98 0 75 0 77 24 77 17 0 24 6 24 18 0 16 -8 18 -62 18 -51
-1 -63 -5 -66 -19 -2 -10 3 -17 12 -17 12 0 16 -10 16 -37 l0 -36 -38 54 -38
54 -127 0 c-115 0 -127 -1 -127 -17z m60 -113 c0 -8 -7 -15 -15 -15 -9 0 -12
6 -9 15 4 8 10 15 15 15 5 0 9 -7 9 -15z"/>
<path d="M1290 1108 c-17 -6 -20 -17 -21 -75 -2 -152 1 -160 72 -156 78 4 89
10 89 46 0 29 -3 33 -25 33 -19 0 -25 -5 -25 -23 0 -19 -5 -23 -30 -23 l-30 0
0 85 0 85 80 0 80 0 0 -85 c0 -66 -3 -85 -14 -85 -16 0 -31 -30 -16 -31 6 0
30 0 55 0 130 0 124 -2 122 31 -1 21 -7 30 -19 30 -10 0 -17 -6 -15 -12 1 -8
-11 -14 -29 -16 l-30 -3 0 83 c1 71 4 83 19 86 9 2 17 11 17 20 0 15 -15 17
-130 17 -71 0 -139 -3 -150 -7z"/>
<path d="M1598 1113 c-33 -8 -20 -33 17 -33 23 0 35 5 35 14 0 11 -26 30 -33
25 -1 -1 -10 -3 -19 -6z"/>
<path d="M1689 1112 c-25 -8 -29 -25 -29 -118 0 -67 4 -95 14 -103 19 -16 123
-18 139 -2 18 18 18 198 0 213 -15 12 -97 18 -124 10z m81 -117 c0 -84 0 -85
-25 -85 -28 0 -27 -3 -29 98 l-1 72 27 0 28 0 0 -85z"/>
<path d="M1870 1103 c-17 -12 -18 -19 -11 -96 1 -4 23 -17 50 -29 64 -26 79
-68 24 -68 -18 0 -23 6 -23 24 0 22 -9 25 -52 17 -12 -2 0 -55 15 -66 19 -13
116 -8 135 7 14 12 16 66 2 88 -5 8 -28 24 -52 35 -29 14 -44 28 -46 43 -3 21
-1 22 77 22 l81 0 0 -84 c0 -77 -2 -84 -21 -89 -12 -3 -19 -11 -17 -18 3 -8
27 -12 68 -12 122 1 117 0 118 33 0 23 -4 30 -19 30 -10 0 -19 -7 -19 -15 0
-10 -10 -15 -28 -15 -26 0 -29 4 -30 35 -1 19 3 35 8 35 6 0 10 -4 10 -10 0
-5 6 -7 13 -4 15 5 17 64 2 64 -6 0 -16 -5 -22 -11 -8 -8 -10 -1 -10 25 l1 36
58 0 c57 0 65 4 50 25 -11 16 -339 14 -362 -2z"/>
<path d="M2254 1111 c-2 -2 -4 -17 -4 -33 0 -18 5 -28 15 -28 8 0 15 7 15 15
0 15 39 22 41 8 1 -5 2 -43 3 -86 1 -67 -1 -77 -16 -77 -10 0 -18 -7 -18 -15
0 -15 5 -17 40 -17 66 0 80 3 80 17 0 8 -7 15 -15 15 -15 0 -18 18 -17 100 1
72 0 70 37 70 27 0 35 4 35 18 0 16 -11 18 -96 17 -52 0 -97 -2 -100 -4z"/>
<path d="M751 841 c-16 -16 -21 -17 -21 -6 0 8 -4 15 -10 15 -5 0 -10 -16 -10
-35 0 -19 5 -35 11 -35 6 0 9 7 5 15 -3 8 -2 15 3 15 5 0 14 -7 21 -15 7 -8
20 -15 29 -15 12 0 10 5 -9 20 -25 19 -25 19 -5 34 11 8 17 17 13 21 -3 4 -16
-3 -27 -14z"/>
<path d="M809 851 c-8 -54 -4 -70 16 -73 12 -3 30 -1 41 3 15 6 12 8 -13 8
-40 1 -44 18 -5 24 l27 4 -27 2 c-39 2 -35 21 4 21 17 0 28 3 24 7 -9 9 -66
13 -67 4z"/>
<path d="M899 851 c-11 -63 5 -84 51 -70 23 7 23 7 -7 8 -40 1 -44 18 -5 24
l27 4 -27 2 c-38 2 -36 21 2 21 17 0 30 4 30 8 0 10 -69 12 -71 3z"/>
<path d="M989 852 c-4 -27 -4 -74 1 -77 3 -2 10 8 17 21 6 14 7 24 1 24 -5 0
-6 5 -3 10 8 13 45 13 45 1 0 -5 -6 -11 -12 -14 -7 -2 -10 -8 -6 -12 13 -14
39 16 29 33 -9 15 -70 27 -72 14z"/>
<path d="M1110 820 c0 -22 4 -40 8 -40 5 0 8 18 8 40 0 22 -4 40 -8 40 -4 0
-8 -18 -8 -40z"/>
<path d="M1140 849 c0 -5 7 -9 15 -9 10 0 15 -10 15 -30 0 -16 5 -30 10 -30 6
0 10 14 10 30 0 21 5 30 17 30 9 0 13 3 9 7 -11 11 -76 13 -76 2z"/>
<path d="M1284 850 c-25 -10 -37 -43 -21 -59 6 -6 22 -11 37 -11 31 0 57 15
42 24 -6 3 -13 2 -17 -4 -14 -23 -59 -2 -49 23 7 20 35 22 52 5 9 -9 12 -9 12
0 0 18 -33 31 -56 22z"/>
<path d="M1362 821 c1 -30 6 -41 21 -45 11 -3 28 -1 36 4 13 7 10 9 -11 10
-24 0 -28 4 -28 29 0 17 -4 33 -10 36 -6 4 -9 -9 -8 -34z"/>
<path d="M1457 825 c-21 -44 -22 -67 -1 -40 8 11 16 20 17 19 1 0 12 -6 25
-13 12 -6 22 -9 22 -7 0 11 -34 76 -40 76 -3 0 -14 -16 -23 -35z m33 -5 c0 -5
-4 -10 -10 -10 -5 0 -10 5 -10 10 0 6 5 10 10 10 6 0 10 -4 10 -10z"/>
<path d="M1552 853 c-33 -6 -24 -37 13 -43 20 -4 26 -8 17 -13 -7 -5 -22 -5
-33 -2 -13 5 -19 3 -15 -3 8 -14 42 -21 56 -12 19 11 4 40 -20 40 -11 0 -20 5
-20 11 0 7 10 9 27 4 23 -5 25 -4 14 9 -8 9 -14 15 -15 15 0 -1 -11 -4 -24 -6z"/>
<path d="M1627 848 c-20 -11 -11 -38 13 -38 11 0 22 -5 26 -12 5 -8 -2 -9 -27
-4 -21 4 -30 3 -24 -3 10 -10 30 -14 53 -12 22 2 13 31 -13 41 -14 5 -25 12
-25 16 0 3 11 3 25 0 14 -4 25 -2 25 3 0 13 -35 20 -53 9z"/>
<path d="M1708 820 c9 -22 19 -40 22 -40 9 1 38 70 28 70 -5 0 -11 -7 -15 -16
-5 -13 -8 -12 -25 5 -27 30 -29 26 -10 -19z"/>
</g>
</svg>
